<?xml version="1.0" encoding="UTF-8" standalone="no"?>
<svg
   xmlns:dc="http://purl.org/dc/elements/1.1/"
   xmlns:cc="http://creativecommons.org/ns#"
   xmlns:rdf="http://www.w3.org/1999/02/22-rdf-syntax-ns#"
   xmlns:svg="http://www.w3.org/2000/svg"
   xmlns="http://www.w3.org/2000/svg"
   viewBox="0 0 793.70001 1122.52"
   height="1122.52"
   width="793.70001"
   xml:space="preserve"
   id="svg2"
   version="1.1"><metadata
     id="metadata8"><rdf:RDF><cc:Work
         rdf:about=""><dc:format>image/svg+xml</dc:format><dc:type
           rdf:resource="http://purl.org/dc/dcmitype/StillImage" /></cc:Work></rdf:RDF></metadata><defs
     id="defs6" /><g
     transform="matrix(1.3333333,0,0,-1.3333333,0,1122.52)"
     id="g10"><g
       transform="translate(297.2437,555.604)"
       id="g12"><path
         id="path14"
         style="fill:#b3b3b3;fill-opacity:1;fill-rule:nonzero;stroke:none"
         d="m 0,0 -126.757,-44.608 20.031,-166.072 106.861,-58.733 107.411,59.528 20.024,166.066 z" /></g><g
       transform="translate(412.1689,502.1875)"
       id="g16"><path
         id="path18"
         style="fill:#a6120d;fill-opacity:1;fill-rule:nonzero;stroke:none"
         d="m 0,0 -115.221,39.292 v -241.257 l 96.561,53.442 z" /></g><g
       transform="translate(184.7109,501.479)"
       id="g20"><path
         id="path22"
         style="fill:#dd1b16;fill-opacity:1;fill-rule:nonzero;stroke:none"
         d="m 0,0 17.165,-148.524 95.07,-52.732 V 40.005 Z" /></g><g
       transform="translate(325.5986,420.5142)"
       id="g24"><path
         id="path26"
         style="fill:#f2f2f2;fill-opacity:1;fill-rule:nonzero;stroke:none"
         d="M 0,0 -28.441,56.303 -51.769,0.969 h 23.117 z m 3.065,-7.467 -31.716,-14.83 H -62.08 l -15.713,-39.305 -29.229,-0.541 78.371,174.348 z" /></g><g
       transform="translate(296.9463,532.7187)"
       id="g28"><path
         id="path30"
         style="fill:#b3b3b3;fill-opacity:1;fill-rule:nonzero;stroke:none"
         d="m 0,0 0.21,-55.901 26.471,-55.378 H 0.06 L 0,-134.467 l 36.811,-0.035 17.204,-39.852 27.966,-0.519 z" /></g></g></svg>