<?xml version="1.0" encoding="UTF-8" standalone="no"?>
<svg
   xmlns:dc="http://purl.org/dc/elements/1.1/"
   xmlns:cc="http://creativecommons.org/ns#"
   xmlns:rdf="http://www.w3.org/1999/02/22-rdf-syntax-ns#"
   xmlns:svg="http://www.w3.org/2000/svg"
   xmlns="http://www.w3.org/2000/svg"
   viewBox="0 0 486.66666 109.05333"
   height="109.05333"
   width="486.66666"
   xml:space="preserve"
   id="svg2"
   version="1.1"><metadata
     id="metadata8"><rdf:RDF><cc:Work
         rdf:about=""><dc:format>image/svg+xml</dc:format><dc:type
           rdf:resource="http://purl.org/dc/dcmitype/StillImage" /></cc:Work></rdf:RDF></metadata><defs
     id="defs6" /><g
     transform="matrix(1.3333333,0,0,-1.3333333,0,109.05333)"
     id="g10"><g
       transform="scale(0.1)"
       id="g12"><path
         id="path14"
         style="fill:#454547;fill-opacity:1;fill-rule:nonzero;stroke:none"
         d="M 0,314.883 H 160.063 L 171.496,452.09 22.8555,486.379 0,314.883" /><path
         id="path16"
         style="fill:#454547;fill-opacity:1;fill-rule:nonzero;stroke:none"
         d="M 28.582,509.254 171.496,474.957 205.797,595.004 85.7461,657.875 28.582,509.254" /><path
         id="path18"
         style="fill:#454547;fill-opacity:1;fill-rule:nonzero;stroke:none"
         d="M 97.1719,680.75 211.504,617.867 302.977,680.75 217.227,777.93 97.1719,680.75" /><path
         id="path20"
         style="fill:#454547;fill-opacity:1;fill-rule:nonzero;stroke:none"
         d="M 737.422,314.883 H 577.367 l -11.441,137.207 148.64,34.289 22.856,-171.496" /><path
         id="path22"
         style="fill:#454547;fill-opacity:1;fill-rule:nonzero;stroke:none"
         d="M 708.84,509.254 565.926,474.957 531.637,595.004 651.676,657.875 708.84,509.254" /><path
         id="path24"
         style="fill:#454547;fill-opacity:1;fill-rule:nonzero;stroke:none"
         d="M 640.242,680.75 525.91,617.867 434.457,680.75 520.203,777.93 640.242,680.75" /><path
         id="path26"
         style="fill:#454547;fill-opacity:1;fill-rule:nonzero;stroke:none"
         d="m 245.813,795.082 85.746,-102.898 h 80.019 l 74.328,102.898 -74.328,22.863 h -82.031 l -83.734,-22.863" /><path
         id="path28"
         style="fill:#9a1a1f;fill-opacity:1;fill-rule:nonzero;stroke:none"
         d="M 0,314.883 H 160.063 L 171.496,452.09 22.8555,486.379 0,314.883" /><path
         id="path30"
         style="fill:#b41d23;fill-opacity:1;fill-rule:nonzero;stroke:none"
         d="M 28.582,509.254 171.496,474.957 205.797,595.004 85.7461,657.875 28.582,509.254" /><path
         id="path32"
         style="fill:#c71e25;fill-opacity:1;fill-rule:nonzero;stroke:none"
         d="M 97.1719,680.75 211.504,617.867 302.977,680.75 217.227,777.93 97.1719,680.75" /><path
         id="path34"
         style="fill:#9a1a1f;fill-opacity:1;fill-rule:nonzero;stroke:none"
         d="M 737.422,314.883 H 577.367 l -11.441,137.207 148.64,34.289 22.856,-171.496" /><path
         id="path36"
         style="fill:#b41d23;fill-opacity:1;fill-rule:nonzero;stroke:none"
         d="M 708.84,509.254 565.926,474.957 531.637,595.004 651.676,657.875 708.84,509.254" /><path
         id="path38"
         style="fill:#c71e25;fill-opacity:1;fill-rule:nonzero;stroke:none"
         d="M 640.242,680.75 525.91,617.867 434.457,680.75 520.203,777.93 640.242,680.75" /><path
         id="path40"
         style="fill:#d02826;fill-opacity:1;fill-rule:nonzero;stroke:none"
         d="m 245.813,795.082 85.746,-102.898 h 80.019 l 74.328,102.898 -74.328,22.863 h -82.031 l -83.734,-22.863" /><path
         id="path42"
         style="fill:#9a1a1f;fill-opacity:1;fill-rule:nonzero;stroke:none"
         d="m 1542.03,621.441 h 44.07 c 21.78,-0.66 37.98,-8.046 48.59,-22.152 10.6,-14.101 17.48,-30.863 20.72,-50.496 3.24,-19.629 4.6,-38.02 4.29,-55.258 0.28,-17.734 -1.31,-36.215 -5,-55.262 -3.7,-19.046 -11.09,-35.257 -22.16,-48.589 -11.06,-13.332 -27.48,-20.137 -49.3,-20.723 h -41.21 z m -547.116,0 h 20.726 c 25.83,-0.179 44.45,-5.418 56.21,-15.957 11.75,-10.543 17.56,-25.308 17.39,-44.066 -0.04,-19.461 -5.09,-35.941 -15.49,-49.543 -10.39,-13.602 -25.88,-20.605 -46.2,-21.199 -7.87,0.308 -15.2,1.406 -21.92,3.574 -6.716,2.168 -10.286,3.5 -10.716,3.809 z m 485.426,53.832 v -360.14 h 102.9 c 33.75,0.562 60.96,9.426 81.46,26.676 20.5,17.246 35.34,39.535 44.54,66.691 9.2,27.156 13.5,55.934 13.34,86.227 0.26,29.941 -3.52,58.386 -11.67,85.746 -8.15,27.363 -22.04,49.828 -41.69,67.406 -19.64,17.582 -46.75,26.793 -80.98,27.394 z m -260.1,0 v -360.14 h 200.08 v 56.687 h -137.91 v 102.899 h 101.23 v 55.972 h -101.23 v 89.082 h 132.19 v 55.5 z m -287.494,0 v -360.14 h 62.168 V 443.754 L 1112.1,315.133 h 55.98 v 25.246 l -102.19,106.23 c 26.63,3.371 47.64,16.282 63.12,38.59 15.49,22.305 23.49,47.504 23.82,75.742 0.5,32.774 -10.07,59.879 -31.44,81.223 -21.36,21.34 -56.52,32.348 -105.75,33.109 h -82.894" /><path
         id="path44"
         style="fill:#d02826;fill-opacity:1;fill-rule:nonzero;stroke:none"
         d="m 2669.38,675.273 v -360.14 h 200.08 v 56.687 h -137.91 v 102.899 h 101.23 v 55.972 h -101.23 v 89.082 h 132.19 v 55.5 z m -315.6,0 v -360.14 h 62.4 v 204.601 c -0.16,12.481 -0.97,23.536 -2.14,32.871 -1.17,9.336 -1.74,14.051 -1.91,14.532 l 113.62,-252.004 h 60.02 v 360.14 h -62.16 c 0,-56.789 0,-99.253 0,-127.433 0,-28.18 0,-47.883 0,-58.832 0,-10.949 0,-18.957 0,-24.055 0,-5.101 0,-12.953 0,-23.582 -0.12,0.883 -1.88,7.027 -5.01,18.34 -3.12,11.312 -6.97,22.652 -11.67,33.824 l -80.03,181.738 z m -141.25,0 v -360.14 h 61.69 v 360.14 z m -416.11,0 v -360.14 h 62.4 v 198.41 l -4.76,41.684 83.6,-240.094 h 51.45 l 83.37,240.094 -4.53,-41.684 v -198.41 h 62.41 v 360.14 H 2057 l -85.75,-244.144 c -2.84,-8.586 -4.69,-15.922 -5.96,-22.152 -1.26,-6.227 -1.93,-9.469 -1.9,-9.766 0.02,0.262 -0.65,3.406 -1.91,9.527 -1.26,6.121 -3.36,13.555 -6.19,22.391 l -85.75,244.144 h -73.12" /><path
         id="path46"
         style="fill:#5b5c5e;fill-opacity:1;fill-rule:nonzero;stroke:none"
         d="m 2988.31,50.5039 h 13.82 c 3.57,0.1875 7.36,-0.2461 11.43,-1.1914 4.07,-0.9414 6.32,-3.5234 6.67,-7.8594 -0.31,-7.4336 -3.21,-13.1093 -8.81,-17.1484 -5.61,-4.0391 -12.08,-6.1445 -19.3,-6.1953 -4.6,-0.1133 -8.59,0.8594 -12.14,3.0976 -3.56,2.2383 -5.53,6.4258 -5.72,12.3868 0.58,4.9765 3.05,9.0468 7.15,12.1445 4.09,3.1015 6.32,4.6719 6.9,4.7656 z m -89.79,50.9731 v -4.2895 c -0.07,-7.6289 -2.21,-14.9336 -6.44,-21.9141 -4.22,-6.9726 -10.18,-10.707 -17.86,-11.1953 -3.58,0.1328 -6.24,1.4805 -8.1,4.0508 -1.85,2.5703 -2.85,5.5899 -2.86,9.0508 0.03,1.6875 0.34,3.4336 0.72,5.2422 0.37,1.8047 0.69,3.5508 1.19,5.2383 z m -234.62,0 v -4.2895 c -0.06,-7.6289 -2.2,-14.9336 -6.43,-21.9141 -4.23,-6.9726 -10.18,-10.707 -17.87,-11.1953 -3.58,0.1328 -6.24,1.4805 -8.09,4.0508 -1.86,2.5703 -2.85,5.5899 -2.86,9.0508 0.02,1.6875 0.33,3.4336 0.71,5.2422 0.38,1.8047 0.7,3.5508 1.19,5.2383 z m -911.07,43.589 c 8.54,-0.699 14.14,-5.14 16.67,-13.339 2.53,-8.2 3.6,-15.981 3.34,-23.344 0.09,-4.504 -0.33,-10.2267 -1.19,-16.9103 -0.87,-6.6875 -2.61,-12.5821 -5.48,-17.8633 -2.88,-5.2852 -7.4,-8.0391 -13.34,-8.3399 -9.73,0.6953 -16,5.2618 -19.06,13.8164 -3.05,8.5547 -4.56,16.9336 -4.28,25.0121 v 29.058 c 2.76,2.789 6.05,5.367 10,7.86 3.95,2.492 8.44,3.879 13.34,4.05 z m -361.81,0 c 8.34,-0.656 13.82,-4.824 16.44,-12.625 2.62,-7.8 3.81,-15.304 3.57,-22.39 0.07,-5.067 -0.5,-11.2268 -1.67,-18.3401 -1.17,-7.1132 -3.36,-13.2929 -6.67,-18.8164 -3.31,-5.5273 -8.17,-8.5117 -14.53,-8.8164 -3.06,0.0625 -6.16,0.6563 -9.53,1.9063 -3.36,1.2539 -6.46,2.8008 -9.05,4.5273 v 62.6443 c 2.56,2.477 5.9,4.996 10.01,7.621 4.11,2.625 7.92,4.075 11.43,4.289 z m 551.88,0.95 c 7.09,-0.375 12.71,-4.504 16.68,-12.383 3.96,-7.883 5.89,-17.25 5.95,-28.11 -0.06,-10.9605 -1.99,-20.2691 -5.95,-28.105 -3.97,-7.8321 -9.59,-12.0235 -16.68,-12.3867 -7.09,0.3632 -12.71,4.5546 -16.67,12.3867 -3.96,7.8359 -5.89,17.1445 -5.95,28.105 0.06,10.86 1.99,20.227 5.95,28.11 3.96,7.879 9.58,12.008 16.67,12.383 z m 1462.48,2.859 c 6.06,-0.199 10.64,-2.301 13.82,-6.43 3.17,-4.129 5.01,-9.093 5.47,-14.769 h -39.77 c 1.24,5.574 3.46,10.355 6.67,14.531 3.2,4.172 7.81,6.453 13.81,6.668 z m -295.83,0 c 6.06,-0.199 10.64,-2.301 13.82,-6.43 3.17,-4.129 5.01,-9.093 5.47,-14.769 h -39.77 c 1.24,5.574 3.46,10.355 6.67,14.531 3.2,4.172 7.81,6.453 13.81,6.668 z m -992.29,0 c 6.06,-0.199 10.64,-2.301 13.81,-6.43 3.17,-4.129 5.02,-9.093 5.48,-14.769 h -39.78 c 1.24,5.574 3.47,10.355 6.67,14.531 3.21,4.172 7.81,6.453 13.82,6.668 z m -555.46,0 c 6.06,-0.199 10.65,-2.301 13.82,-6.43 3.17,-4.129 5.01,-9.093 5.47,-14.769 h -39.77 c 1.24,5.574 3.46,10.355 6.67,14.531 3.2,4.172 7.81,6.453 13.81,6.668 z m -445.89,0 c 6.06,-0.199 10.65,-2.301 13.82,-6.43 3.17,-4.129 5.01,-9.093 5.48,-14.769 h -39.78 c 1.24,5.574 3.46,10.355 6.67,14.531 3.2,4.172 7.81,6.453 13.81,6.668 z m 1878.6,0.477 c 6.2,-0.297 10.43,-2.918 12.86,-7.622 2.42,-4.703 3.67,-9.707 3.57,-15.246 0.11,-5.382 -1,-10.363 -3.33,-14.765 -2.34,-4.403 -6.54,-6.645 -12.63,-6.906 -6.84,0.226 -11.35,2.57 -13.57,7.144 -2.23,4.574 -3.28,10.012 -3.1,16.195 -0.1,5.469 1.17,10.313 3.57,14.532 2.4,4.218 6.53,6.441 12.63,6.668 z m -977.29,14.531 V 38.5938 c -0.19,-5.0196 -1.87,-9.2696 -5.24,-12.625 -3.37,-3.3516 -7.32,-5.6954 -11.67,-7.1446 l 5.24,-17.863262 c 7.76,2.027342 15.7,5.621092 23.58,10.957062 7.88,5.3359 12.01,13.8086 12.62,25.2461 V 163.883 Z m -731.72,0 V 47.168 h 24.54 v 116.715 z m -112.42,0 31.68,-56.453 -33.83,-60.262 h 27.4 l 20.24,39.539 20.96,-39.539 h 28.59 l -35.73,61.691 c 1.51,2.555 4.74,8.192 9.76,16.911 5.02,8.722 9.91,17.191 14.53,25.25 4.62,8.058 7.06,12.293 7.39,12.863 h -27.4 l -17.86,-35.016 -17.63,35.016 z m 2359.73,3.57 c -5.32,-0.117 -11,-1.43 -16.91,-3.808 -5.91,-2.383 -10.88,-5.122 -15.01,-8.336 v 8.574 h -25.01 V 47.168 h 25.01 v 86.227 c 3.06,2.496 7.43,5.093 12.87,7.859 5.43,2.762 10.75,4.293 16.19,4.523 3.83,0.055 6.39,-0.941 7.63,-2.855 1.23,-1.918 1.77,-5.055 1.66,-9.527 V 47.168 h 25.01 v 86.227 c 0.36,9.234 -1.55,17.234 -5.71,23.816 -4.17,6.586 -12.75,9.941 -25.73,10.242 z m -125.76,0 c -16.19,-0.613 -28.8,-6.887 -37.64,-18.578 -8.83,-11.691 -13.22,-25.109 -13.33,-40.492 -0.08,-10.0978 1.36,-20.1603 4.28,-30.0119 2.93,-9.8516 7.69,-17.9648 14.53,-24.5313 6.84,-6.5703 16.2,-9.9921 27.87,-10.2421 6.9,0.207 14.15,2.1132 21.68,5.7148 7.52,3.6016 13.93,7.6523 19.29,12.1484 l -8.34,16.1954 c -4.22,-3.2461 -9.06,-6.2227 -14.77,-8.8125 -5.7,-2.5899 -11.26,-3.8985 -16.43,-4.0469 -8.46,0.7422 -14.41,5.2695 -17.86,13.8125 -3.46,8.5469 -5.13,16.6445 -5.01,24.0586 -0.03,1.43 0.04,2.855 0.24,4.285 h 68.12 c 0,2.621 0.07,5.242 0,7.863 -0.07,2.618 -0.23,5.239 -0.23,7.86 -0.64,11.554 -4.97,21.816 -12.87,30.726 -7.9,8.907 -17.7,13.571 -29.53,14.051 z m -172.45,0 c -5.11,-0.242 -10.53,-1.808 -16.44,-4.523 -5.91,-2.715 -10.25,-5.117 -12.86,-7.383 v 8.336 h -25.01 V 47.168 h 25.01 v 85.75 c 2.35,1.992 6.28,4.496 11.91,7.621 5.63,3.125 10.99,4.914 15.96,5.238 3.97,-0.078 6.63,-1.586 8.1,-4.285 1.47,-2.699 2.22,-6.113 2.14,-10.48 V 47.168 h 25.01 v 87.895 c 2.69,2.113 6.16,4.253 10.48,6.667 4.32,2.411 9.11,3.84 14.29,4.047 3.97,0.063 6.63,-0.89 8.1,-2.617 1.47,-1.726 2.23,-4.586 2.15,-8.812 v -87.18 h 25.01 v 87.18 c 0.24,9.402 -2,17.125 -6.91,23.34 -4.91,6.218 -13.94,9.535 -26.92,9.765 -6,-0.293 -11.92,-2.058 -17.86,-5.238 -5.95,-3.184 -10.91,-6.02 -14.77,-8.574 -2.5,3.386 -5.93,6.464 -10.48,9.289 -4.55,2.824 -10.25,4.351 -16.91,4.523 z m -123.38,0 c -16.19,-0.613 -28.8,-6.887 -37.64,-18.578 -8.83,-11.691 -13.22,-25.109 -13.33,-40.492 -0.08,-10.0978 1.36,-20.1603 4.28,-30.0119 2.93,-9.8516 7.69,-17.9648 14.53,-24.5313 6.84,-6.5703 16.2,-9.9921 27.87,-10.2421 6.9,0.207 14.15,2.1132 21.68,5.7148 7.52,3.6016 13.93,7.6523 19.29,12.1484 l -8.34,16.1954 c -4.22,-3.2461 -9.06,-6.2227 -14.77,-8.8125 -5.7,-2.5899 -11.26,-3.8985 -16.43,-4.0469 -8.46,0.7422 -14.41,5.2695 -17.86,13.8125 -3.46,8.5469 -5.13,16.6445 -5.01,24.0586 -0.03,1.43 0.04,2.855 0.24,4.285 h 68.12 c 0,2.621 0.07,5.242 0,7.863 -0.07,2.618 -0.23,5.239 -0.23,7.86 -0.64,11.554 -4.97,21.816 -12.87,30.726 -7.9,8.907 -17.7,13.571 -29.53,14.051 z m -115.29,0 c -12.8,-0.152 -22.92,-3.984 -30.48,-11.433 -7.57,-7.446 -11.5,-17.59 -11.67,-30.489 -0.04,-6.926 1.51,-13.676 4.76,-20.246 3.24,-6.5662 8.37,-11.41 15.24,-14.5272 -4.34,-1.5664 -8.13,-3.9101 -11.43,-7.1445 -3.3,-3.2344 -5.07,-7.2461 -5.24,-11.9102 0.14,-4.1875 1.53,-7.9609 4.29,-11.1953 2.76,-3.2344 6.05,-5.1015 9.76,-5.7148 -4.75,-1.9453 -9.45,-5.0821 -14.05,-9.2891 -4.6,-4.2109 -7.04,-9.25 -7.38,-15.2461 0.52,-11.1601 5.1,-19 13.57,-23.58202 8.47,-4.57812 17.7,-6.820311 27.87,-6.6679675 13.26,0.0546875 25.21,3.8203175 35.97,11.1952875 10.76,7.375 16.51,18.0508 17.15,32.1563 -0.26,8.6054 -3.29,15.0351 -9.05,19.5312 -5.77,4.4961 -12.73,6.875 -20.97,6.9063 h -7.62 c -3.41,-0.211 -8.23,-0.3516 -14.29,-0.2383 -6.06,0.1133 -9.33,1.7617 -10,4.7656 0.36,3.8242 2.26,6.3867 5.71,7.8594 3.46,1.4727 6.32,2.4844 8.58,2.8594 1.42,0.3398 2.71,0.5195 4.05,0.7148 1.33,0.1914 2.74,0.4883 4.05,0.711 9.7,2.4609 17.18,6.9492 22.39,13.5782 5.2,6.629 7.8,14.926 7.86,24.773 -0.04,2.996 -0.3,6.055 -0.96,9.051 -0.66,2.996 -1.51,5.813 -2.38,8.574 h 13.58 v 21.438 h -29.77 c -3.01,1.293 -6.2,2.305 -9.53,2.855 -3.33,0.551 -6.65,0.731 -10.01,0.715 z m -109.56,0 c -7.68,-0.148 -15.28,-2.293 -22.63,-6.191 -7.35,-3.903 -13.4,-8.664 -18.34,-14.532 l 8.57,-15.003 c 3.84,3.722 8.58,6.937 14.06,9.765 5.47,2.828 10.81,4.375 16.19,4.524 4.12,0.082 7.5,-0.672 10.01,-2.379 2.51,-1.707 3.74,-4.844 3.81,-9.289 v -11.672 l -51.21,-22.153 c -1.76,-3.3355 -3.31,-7.1441 -4.77,-11.4332 -1.45,-4.2851 -2.29,-8.3359 -2.38,-12.1484 0,-10.4531 2.6,-18.6914 7.86,-24.5312 5.27,-5.8399 13.23,-8.7188 23.82,-8.8125 6.73,0.0312 12.42,1.5781 17.15,4.5234 4.73,2.9492 8.88,7.1172 12.39,12.625 1.04,-5.2891 3.42,-9.418 7.14,-12.3867 3.72,-2.9649 8.25,-4.4766 13.58,-4.5235 3,0.0157 5.93,0.5508 8.81,1.4297 2.88,0.875 5.58,2.0078 8.1,3.5703 l -6.43,12.625 c -0.72,-0.3711 -1.43,-0.6679 -2.14,-0.9531 -0.72,-0.2812 -1.43,-0.4609 -2.15,-0.4765 -1.75,0.0781 -2.92,0.6367 -3.57,1.9062 -0.65,1.2695 -0.99,2.7773 -0.95,4.2852 v 67.8863 c -0.2,11.391 -3.73,19.809 -10.48,25.246 -6.75,5.438 -15.53,8.137 -26.44,8.098 z m -104.57,0 c -5.32,-0.117 -10.99,-1.43 -16.91,-3.808 -5.91,-2.383 -10.88,-5.122 -15,-8.336 v 8.574 h -25.01 V 47.168 h 25.01 v 86.227 c 3.05,2.496 7.42,5.093 12.86,7.859 5.44,2.762 10.76,4.293 16.19,4.523 3.83,0.055 6.39,-0.941 7.63,-2.855 1.23,-1.918 1.77,-5.055 1.66,-9.527 V 47.168 h 25.01 v 86.227 c 0.36,9.234 -1.54,17.234 -5.71,23.816 -4.17,6.586 -12.75,9.941 -25.73,10.242 z m -130.05,0 c -7.67,-0.148 -15.28,-2.293 -22.63,-6.191 -7.34,-3.903 -13.4,-8.664 -18.34,-14.532 l 8.58,-15.003 c 3.83,3.722 8.58,6.937 14.05,9.765 5.47,2.828 10.81,4.375 16.2,4.524 4.12,0.082 7.49,-0.672 10,-2.379 2.51,-1.707 3.74,-4.844 3.81,-9.289 v -11.672 l -51.21,-22.153 c -1.75,-3.3355 -3.3,-7.1441 -4.76,-11.4332 -1.46,-4.2851 -2.29,-8.3359 -2.38,-12.1484 -0.01,-10.4531 2.59,-18.6914 7.86,-24.5312 5.26,-5.8399 13.22,-8.7188 23.82,-8.8125 6.72,0.0312 12.42,1.5781 17.15,4.5234 4.72,2.9492 8.87,7.1172 12.38,12.625 1.04,-5.2891 3.43,-9.418 7.15,-12.3867 3.72,-2.9649 8.24,-4.4766 13.57,-4.5235 3,0.0157 5.94,0.5508 8.82,1.4297 2.88,0.875 5.57,2.0078 8.1,3.5703 l -6.44,12.625 c -0.71,-0.3711 -1.43,-0.6679 -2.14,-0.9531 -0.71,-0.2812 -1.43,-0.4609 -2.14,-0.4765 -1.75,0.0781 -2.93,0.6367 -3.58,1.9062 -0.65,1.2695 -0.98,2.7773 -0.95,4.2852 v 67.8863 c -0.2,11.391 -3.73,19.809 -10.48,25.246 -6.75,5.438 -15.52,8.137 -26.44,8.098 z m -166.97,0 c -5.1,-0.242 -10.52,-1.808 -16.43,-4.523 -5.91,-2.715 -10.26,-5.117 -12.87,-7.383 v 8.336 h -25 V 47.168 h 25 v 85.75 c 2.36,1.992 6.29,4.496 11.91,7.621 5.63,3.125 10.99,4.914 15.96,5.238 3.97,-0.078 6.63,-1.586 8.1,-4.285 1.47,-2.699 2.22,-6.113 2.14,-10.48 V 47.168 h 25.01 v 87.895 c 2.69,2.113 6.16,4.253 10.49,6.667 4.32,2.411 9.1,3.84 14.29,4.047 3.97,0.063 6.63,-0.89 8.09,-2.617 1.47,-1.726 2.23,-4.586 2.15,-8.812 v -87.18 h 25.01 v 87.18 c 0.24,9.402 -2,17.125 -6.91,23.34 -4.91,6.218 -13.94,9.535 -26.91,9.765 -6.01,-0.293 -11.92,-2.058 -17.87,-5.238 -5.94,-3.184 -10.91,-6.02 -14.77,-8.574 -2.49,3.386 -5.93,6.464 -10.48,9.289 -4.55,2.824 -10.24,4.351 -16.91,4.523 z m -256.77,0 c -11.09,-0.242 -20.28,-3.609 -27.39,-10.004 -7.1,-6.394 -12.32,-14.461 -15.72,-24.054 -3.4,-9.598 -5.02,-19.207 -5,-29.059 0,-9.5235 1.77,-18.8751 5.24,-28.1094 3.47,-9.2305 8.71,-16.9688 15.72,-23.1016 7.02,-6.1367 15.81,-9.293 26.44,-9.5273 6.6,0.1132 13.23,1.7617 20.01,4.7617 6.78,3.0039 12.69,6.6758 17.62,11.1953 l -8.57,17.1484 c -3.61,-2.8906 -7.82,-5.6523 -12.86,-8.0976 -5.04,-2.4453 -9.97,-3.6563 -14.53,-3.8086 -6.07,0.2578 -10.77,2.7148 -14.29,7.6211 -3.53,4.9062 -6.14,10.6797 -7.63,17.1484 -1.48,6.4688 -2.18,12.2066 -2.14,17.1486 -0.02,4.691 0.8,10.062 2.38,16.199 1.59,6.137 4.19,11.543 7.62,16.195 3.44,4.657 7.81,7.141 13.34,7.383 3.68,-0.035 7.55,-0.91 11.44,-2.379 3.88,-1.468 7.16,-3.297 10,-5.718 l 12.62,14.769 c -4.03,4.762 -9.33,8.336 -15.72,10.719 -6.38,2.379 -12.52,3.57 -18.58,3.57 z m -109.09,0 c -16.19,-0.613 -28.79,-6.887 -37.63,-18.578 -8.84,-11.691 -13.22,-25.109 -13.34,-40.492 -0.07,-10.0978 1.37,-20.1603 4.29,-30.0119 2.92,-9.8516 7.69,-17.9648 14.53,-24.5313 6.84,-6.5703 16.19,-9.9921 27.87,-10.2421 6.9,0.207 14.14,2.1132 21.67,5.7148 7.53,3.6016 13.94,7.6523 19.3,12.1484 l -8.34,16.1954 c -4.22,-3.2461 -9.06,-6.2227 -14.77,-8.8125 -5.71,-2.5899 -11.26,-3.8985 -16.43,-4.0469 -8.46,0.7422 -14.41,5.2695 -17.87,13.8125 -3.45,8.5469 -5.12,16.6445 -5,24.0586 -0.04,1.43 0.04,2.855 0.24,4.285 h 68.12 c -0.01,2.621 0.07,5.242 0,7.863 -0.07,2.618 -0.23,5.239 -0.24,7.86 -0.63,11.554 -4.96,21.816 -12.86,30.726 -7.9,8.907 -17.71,13.571 -29.54,14.051 z m -176.02,0 c -16.05,-0.762 -28.1,-7.394 -35.96,-20.008 -7.87,-12.613 -11.7,-26.625 -11.67,-41.922 -0.03,-15.3941 3.8,-29.3511 11.67,-41.9175 7.86,-12.5703 19.91,-19.2578 35.96,-20.0078 16.06,0.75 28.1,7.4375 35.97,20.0078 7.86,12.5664 11.7,26.5234 11.67,41.9175 0.02,15.297 -3.81,29.309 -11.67,41.922 -7.87,12.614 -19.91,19.246 -35.97,20.008 z m -73.36,0 c -4.09,-0.504 -8.06,-2.648 -11.91,-6.191 -3.85,-3.543 -5.91,-5.449 -6.19,-5.953 v 8.574 h -25.25 V 47.168 h 25.01 v 86.941 c 0.24,0.438 2.03,2.184 5.24,5.239 3.22,3.058 6.43,4.804 9.77,5.242 3.05,-0.18 5.99,-0.895 8.81,-2.145 2.82,-1.25 4.33,-1.965 4.53,-2.144 l 4.04,23.582 c -0.02,0.148 -1.17,0.625 -3.57,1.668 -2.4,1.039 -5.93,1.754 -10.48,1.902 z m -114.33,0 c -6.74,-0.324 -12.4,-1.992 -16.91,-5 -4.51,-3.008 -7.43,-5.39 -8.81,-7.144 v 8.574 h -25.25 V 5.48438 h 25.25 V 55.5078 c 2.38,-4.1445 5.83,-7.1445 10.24,-9.0547 4.4,-1.9101 9.05,-2.8828 14.05,-2.8554 11.95,0.3007 21.12,3.8789 27.63,10.957 6.52,7.0742 11.08,15.9492 13.58,26.1992 2.49,10.25 3.69,20.1841 3.57,30.0121 0.05,13.718 -3.42,26.445 -10.48,38.109 -7.06,11.668 -18.04,17.84 -32.87,18.578 z m -191.74,0 c -16.19,-0.613 -28.8,-6.887 -37.63,-18.578 -8.84,-11.691 -13.23,-25.109 -13.34,-40.492 -0.08,-10.0978 1.36,-20.1603 4.28,-30.0119 2.93,-9.8516 7.69,-17.9648 14.53,-24.5313 6.84,-6.5703 16.2,-9.9921 27.87,-10.2421 6.9,0.207 14.15,2.1132 21.68,5.7148 7.52,3.6016 13.94,7.6523 19.29,12.1484 l -8.34,16.1954 c -4.21,-3.2461 -9.06,-6.2227 -14.76,-8.8125 -5.71,-2.5899 -11.27,-3.8985 -16.44,-4.0469 -8.45,0.7422 -14.41,5.2695 -17.86,13.8125 -3.46,8.5469 -5.12,16.6445 -5.01,24.0586 -0.03,1.43 0.04,2.855 0.24,4.285 h 68.12 c 0,2.621 0.07,5.242 0,7.863 -0.06,2.618 -0.22,5.239 -0.23,7.86 -0.64,11.554 -4.97,21.816 -12.87,30.726 -7.9,8.907 -17.7,13.571 -29.53,14.051 z m -445.89,0 c -16.19,-0.613 -28.8,-6.887 -37.63,-18.578 -8.84,-11.691 -13.23,-25.109 -13.34,-40.492 -0.08,-10.0978 1.36,-20.1603 4.29,-30.0119 2.92,-9.8516 7.69,-17.9648 14.52,-24.5313 6.84,-6.5703 16.2,-9.9921 27.87,-10.2421 6.91,0.207 14.15,2.1132 21.68,5.7148 7.53,3.6016 13.94,7.6523 19.29,12.1484 l -8.34,16.1954 c -4.21,-3.2461 -9.06,-6.2227 -14.76,-8.8125 -5.71,-2.5899 -11.27,-3.8985 -16.44,-4.0469 -8.45,0.7422 -14.41,5.2695 -17.86,13.8125 -3.46,8.5469 -5.12,16.6445 -5,24.0586 -0.04,1.43 0.03,2.855 0.23,4.285 h 68.13 c -0.01,2.621 0.06,5.242 0,7.863 -0.07,2.618 -0.23,5.239 -0.24,7.86 -0.64,11.554 -4.96,21.816 -12.86,30.726 -7.9,8.907 -17.71,13.571 -29.54,14.051 z m 2484.07,17.391 v -20.961 h -15.96 v -17.867 l 15,-2.618 V 72.8945 c -0.09,-8.0976 1.8,-14.8867 5.48,-20.4843 3.69,-5.5977 9.74,-8.5743 18.34,-8.8125 5.53,-0.0157 10.02,0.5195 13.34,1.6679 3.33,1.1446 7.34,2.9922 12.15,5.4766 l -5.95,17.625 c -0.18,-0.1289 -1.47,-0.7617 -4.05,-1.668 -2.59,-0.9023 -5.43,-1.2969 -8.34,-1.4297 -2.75,0.1094 -4.34,0.9063 -5,2.6211 -0.67,1.7188 -1.06,3.7032 -0.96,5.7188 v 69.0746 h 20.73 v 21.199 h -21.2 v 20.961 z m -1313.61,0 v -20.961 h -15.96 v -17.867 l 15.01,-2.618 V 72.8945 c -0.1,-8.0976 1.79,-14.8867 5.47,-20.4843 3.69,-5.5977 9.74,-8.5743 18.34,-8.8125 5.53,-0.0157 10.02,0.5195 13.34,1.6679 3.33,1.1446 7.34,2.9922 12.15,5.4766 l -5.95,17.625 c -0.18,-0.1289 -1.47,-0.7617 -4.05,-1.668 -2.59,-0.9023 -5.43,-1.2969 -8.34,-1.4297 -2.75,0.1094 -4.34,0.9063 -5,2.6211 -0.67,1.7188 -1.06,3.7032 -0.95,5.7188 v 69.0746 h 20.72 v 21.199 h -21.2 v 20.961 z m -258.2,24.293 c -4.56,-0.117 -8.39,-1.668 -11.67,-4.762 -3.28,-3.098 -5.09,-7.027 -5.24,-11.672 0.13,-4.492 1.72,-8.164 4.76,-10.957 3.05,-2.793 6.78,-4.203 11.2,-4.289 4.56,0.121 8.39,1.668 11.67,4.766 3.28,3.093 5.09,7.027 5.24,11.672 -0.13,4.488 -1.72,8.16 -4.76,10.957 -3.05,2.793 -6.78,4.203 -11.2,4.285 z m -731.47,0 c -4.57,-0.117 -8.4,-1.668 -11.68,-4.762 -3.28,-3.098 -5.08,-7.027 -5.24,-11.672 0.13,-4.492 1.72,-8.164 4.77,-10.957 3.04,-2.793 6.78,-4.203 11.19,-4.289 4.56,0.121 8.39,1.668 11.67,4.766 3.28,3.093 5.09,7.027 5.24,11.672 -0.12,4.488 -1.71,8.16 -4.76,10.957 -3.05,2.793 -6.78,4.203 -11.19,4.285 z m 162.2,3.574 V 96 c 0.13,-13.6055 0.86,-24.3047 2.38,-32.1562 1.53,-7.8555 3.09,-13.4336 4.53,-16.6758 h 25.72 c -2.63,8.6445 -4.57,16.5468 -5.95,23.8203 -1.38,7.2734 -2.14,15.6523 -2.14,25.0117 v 116.711 z m -116,0 V 59.0781 c 6.01,-4.6054 12.64,-8.375 19.77,-11.1953 7.14,-2.8164 14.48,-4.207 22.16,-4.2851 12.61,0.2617 22.68,3.7773 30.01,10.7187 7.32,6.9414 12.39,15.7383 15.48,26.1992 3.09,10.461 4.61,21.0934 4.52,31.9184 0.06,13.754 -3.41,26.257 -10.48,37.394 -7.06,11.137 -18.03,16.973 -32.87,17.625 -4.09,-0.133 -8.44,-1.383 -12.86,-3.808 -4.42,-2.426 -7.93,-5.227 -10.72,-8.336 v 57.402 z m -329.89,0 V 96 c 0.13,-13.6055 0.86,-24.3047 2.38,-32.1562 1.53,-7.8555 3.1,-13.4336 4.53,-16.6758 h 25.72 c -2.63,8.6445 -4.57,16.5468 -5.95,23.8203 -1.38,7.2734 -2.13,15.6523 -2.14,25.0117 v 116.711 z m -20.004,2.617 c -0.547,0.211 -4.324,-0.305 -11.434,-1.664 -7.109,-1.363 -14.328,-4.805 -21.437,-10.242 -7.11,-5.438 -10.887,-14.184 -11.434,-26.203 v -13.336 h -15.242 v -17.867 l 15.242,-2.618 v -96.23 h 25.012 v 95.754 h 21.676 v 20.961 h -21.676 v 12.144 c 0.289,6.489 2.406,11.258 6.191,14.293 3.785,3.035 7.41,4.875 11.196,5.715 3.785,0.84 5.902,1.297 6.191,1.192 l -4.285,18.101" /></g></g></svg>