<?xml version="1.0" standalone="no"?>
<!DOCTYPE svg PUBLIC "-//W3C//DTD SVG 20010904//EN"
 "http://www.w3.org/TR/2001/REC-SVG-20010904/DTD/svg10.dtd">
<svg version="1.0" xmlns="http://www.w3.org/2000/svg"
 width="500.000000pt" height="446.000000pt" viewBox="0 0 500.000000 446.000000"
 preserveAspectRatio="xMidYMid meet">
<metadata>
Created by potrace 1.15, written by Peter Selinger 2001-2017
</metadata>
<g transform="translate(0.000000,446.000000) scale(0.100000,-0.100000)"
fill="#000000" stroke="none">
<path d="M682 4443 c-42 -23 -89 -68 -107 -103 -8 -16 -35 -86 -60 -157 -25
-70 -52 -144 -60 -163 -21 -55 -47 -127 -140 -385 -47 -132 -91 -251 -97 -265
-11 -27 -85 -230 -98 -270 -4 -14 -33 -94 -64 -178 -49 -132 -56 -162 -56
-224 0 -83 23 -142 73 -184 41 -35 38 -34 427 -174 344 -125 420 -152 480
-175 48 -18 418 -153 570 -207 47 -17 101 -37 120 -44 58 -22 144 -17 198 10
83 42 100 70 176 281 31 88 63 176 71 195 78 202 145 402 145 431 0 34 -46 89
-77 90 -10 0 -52 1 -93 2 -261 6 -417 277 -279 483 27 39 104 93 162 113 105
35 256 -4 339 -89 59 -62 134 -63 170 -2 43 73 71 167 72 243 1 73 -1 80 -37
131 -46 68 -71 82 -282 158 -93 33 -181 66 -195 72 -14 5 -86 32 -160 58 -74
26 -247 89 -385 140 -137 51 -261 96 -275 100 -14 5 -56 20 -95 35 -38 14 -88
32 -110 40 -22 7 -65 23 -95 34 -71 27 -191 29 -238 4z m519 -217 c200 -73
549 -200 774 -281 444 -161 465 -172 479 -248 6 -34 -36 -191 -54 -202 -5 -3
-17 5 -27 18 -44 55 -146 103 -251 118 -177 25 -356 -70 -430 -229 -21 -45
-27 -75 -30 -147 -4 -108 16 -173 82 -263 75 -102 188 -160 333 -171 l81 -6
-132 -365 c-73 -201 -140 -377 -150 -392 -21 -32 -73 -58 -114 -58 -30 0 -222
68 -1157 409 -392 143 -443 164 -472 195 -52 57 -52 88 0 234 327 901 539
1468 554 1484 27 26 92 49 124 42 15 -3 190 -65 390 -138z"/>
<path d="M2038 3420 c-91 -17 -152 -95 -153 -196 0 -81 34 -135 108 -170 61
-28 89 -30 148 -9 80 29 129 98 129 183 0 122 -112 214 -232 192z m97 -136
c48 -52 17 -134 -50 -134 -47 0 -64 8 -80 41 -21 40 -19 57 14 90 38 38 83 39
116 3z"/>
<path d="M2331 3120 c-14 -27 -23 -51 -20 -54 12 -12 121 -66 133 -66 7 0 25
22 40 49 l26 49 -32 20 c-47 28 -99 52 -112 52 -6 0 -22 -23 -35 -50z"/>
<path d="M2597 2993 c-13 -21 -27 -43 -31 -50 -4 -8 16 -26 56 -52 35 -22 68
-41 73 -41 9 0 65 80 65 93 0 9 -117 87 -129 87 -6 0 -21 -17 -34 -37z"/>
<path d="M2840 2828 c-16 -22 -30 -46 -30 -52 0 -12 104 -96 118 -96 11 0 72
75 72 88 0 8 -115 102 -125 102 -3 0 -18 -19 -35 -42z"/>
<path d="M3062 2639 c-19 -21 -32 -42 -30 -46 6 -15 105 -103 115 -103 13 0
73 63 73 77 0 14 -101 113 -115 112 -5 0 -25 -18 -43 -40z"/>
<path d="M3277 2439 c-20 -17 -37 -36 -37 -42 0 -14 88 -117 99 -117 11 0 91
63 91 71 0 10 -100 119 -109 119 -3 0 -23 -14 -44 -31z"/>
<path d="M3457 2207 l-38 -32 40 -54 c23 -30 41 -58 41 -63 0 -16 27 -7 68 23
24 17 42 35 40 40 -9 26 -85 119 -98 119 -8 0 -32 -15 -53 -33z"/>
<path d="M3635 1973 c-22 -14 -42 -28 -44 -30 -5 -4 11 -34 56 -106 l24 -38
37 22 c69 41 68 40 26 113 -22 36 -44 66 -49 66 -6 0 -28 -12 -50 -27z"/>
<path d="M3813 1688 c-111 -29 -86 -197 29 -198 113 -1 141 169 33 198 -16 5
-44 5 -62 0z"/>
<path d="M105 1651 l-80 -6 -3 -397 -2 -398 115 0 115 0 0 129 0 128 73 6
c153 11 240 59 288 160 65 139 20 281 -112 348 -55 28 -69 30 -187 33 -70 2
-163 1 -207 -3z m265 -186 c51 -26 50 -115 -2 -149 -13 -8 -44 -18 -70 -21
l-48 -7 0 96 0 96 45 0 c26 0 59 -7 75 -15z"/>
<path d="M1640 1651 l-85 -6 -3 -397 -2 -398 115 0 115 0 0 130 0 130 51 0
c59 0 157 23 208 50 151 78 179 316 49 425 -61 52 -112 66 -243 70 -66 1 -158
0 -205 -4z m260 -186 c34 -17 45 -49 36 -99 -8 -43 -42 -65 -103 -69 l-48 -2
-3 93 -3 92 46 0 c25 0 59 -7 75 -15z"/>
<path d="M720 1250 l0 -400 115 0 115 0 0 155 0 155 125 0 125 0 0 -155 0
-155 115 0 115 0 0 400 0 400 -115 0 -115 0 0 -145 0 -145 -125 0 -125 0 0
145 0 145 -115 0 -115 0 0 -400z"/>
<path d="M2260 1427 c0 -341 20 -438 104 -518 55 -51 117 -72 216 -73 114 -1
185 21 242 77 90 88 108 166 108 495 l0 242 -100 0 -99 0 -3 -272 c-3 -253 -5
-276 -24 -312 -56 -108 -193 -92 -229 26 -12 40 -15 107 -15 305 l0 253 -100
0 -100 0 0 -223z"/>
<path d="M4170 1567 l-75 -22 -3 -52 -3 -52 -37 -3 -37 -3 -3 -72 -3 -73 40 0
39 0 4 -162 c3 -147 6 -167 26 -206 18 -34 35 -49 75 -68 58 -26 92 -29 167
-13 l50 11 0 74 0 74 -49 0 c-31 0 -53 5 -61 15 -8 9 -14 64 -18 145 l-5 130
67 0 66 0 0 75 0 75 -65 0 -65 0 0 75 c0 87 4 85 -110 52z"/>
<path d="M3328 1437 c-20 -6 -50 -24 -67 -39 l-30 -27 -3 32 -3 32 -89 3 -89
3 6 -143 c4 -79 7 -212 7 -295 l0 -153 94 0 95 0 3 189 c3 185 4 190 27 215
34 36 92 36 120 0 20 -25 21 -40 21 -215 l0 -189 101 0 100 0 -3 218 c-3 209
-4 219 -28 266 -39 75 -83 105 -161 111 -37 3 -79 0 -101 -8z"/>
<path d="M3740 1145 l0 -295 100 0 100 0 0 295 0 295 -100 0 -100 0 0 -295z"/>
</g>
</svg>
