<?xml version="1.0" encoding="UTF-8" standalone="no"?>
<svg
   xmlns:dc="http://purl.org/dc/elements/1.1/"
   xmlns:cc="http://creativecommons.org/ns#"
   xmlns:rdf="http://www.w3.org/1999/02/22-rdf-syntax-ns#"
   xmlns:svg="http://www.w3.org/2000/svg"
   xmlns="http://www.w3.org/2000/svg"
   viewBox="0 0 530.66669 224"
   height="224"
   width="530.66669"
   xml:space="preserve"
   id="svg2"
   version="1.1"><metadata
     id="metadata8"><rdf:RDF><cc:Work
         rdf:about=""><dc:format>image/svg+xml</dc:format><dc:type
           rdf:resource="http://purl.org/dc/dcmitype/StillImage" /></cc:Work></rdf:RDF></metadata><defs
     id="defs6"><clipPath
       id="clipPath22"
       clipPathUnits="userSpaceOnUse"><path
         id="path20"
         d="M 0,168 H 398 V 0 H 0 Z" /></clipPath></defs><g
     transform="matrix(1.3333333,0,0,-1.3333333,0,224)"
     id="g10"><g
       transform="translate(88.7114,116.3755)"
       id="g12"><path
         id="path14"
         style="fill:#da3826;fill-opacity:1;fill-rule:nonzero;stroke:none"
         d="m 0,0 v -77.438 l -57.711,8.479 57.333,-23.749 30.333,10.666 V 7.625 l -30,8.666 -57.666,-21.333 v -63.102 l 19,7.102 0.063,51.922 z" /></g><g
       id="g16"><g
         clip-path="url(#clipPath22)"
         id="g18"><g
           transform="translate(183.5103,106.6909)"
           id="g24"><path
             id="path26"
             style="fill:#da3826;fill-opacity:1;fill-rule:nonzero;stroke:none"
             d="m 0,0 c -3.793,0 -7.155,-0.742 -10.087,-2.225 -2.932,-1.483 -5.405,-3.492 -7.417,-6.024 -2.014,-2.532 -3.538,-5.499 -4.574,-8.899 -1.035,-3.402 -1.568,-7.02 -1.597,-10.856 -0.029,-3.657 0.43,-7.155 1.379,-10.496 0.947,-3.341 2.377,-6.292 4.288,-8.855 1.911,-2.562 4.325,-4.607 7.243,-6.136 2.916,-1.528 6.33,-2.292 10.24,-2.292 3.909,0 7.344,0.697 10.305,2.09 2.961,1.394 5.433,3.326 7.418,5.799 1.983,2.472 3.478,5.416 4.485,8.832 1.007,3.417 1.51,7.147 1.51,11.193 0,3.776 -0.445,7.356 -1.335,10.743 -0.89,3.386 -2.275,6.345 -4.157,8.877 -1.882,2.532 -4.282,4.541 -7.199,6.024 C 7.584,-0.742 4.084,0 0,0 m -0.481,-61.222 c -4.523,0 -8.593,0.847 -12.21,2.54 -3.618,1.692 -6.688,4.008 -9.211,6.944 -2.524,2.937 -4.464,6.391 -5.821,10.362 -1.356,3.97 -2.034,8.232 -2.034,12.788 0,5.034 0.678,9.641 2.034,13.822 1.357,4.18 3.333,7.761 5.93,10.743 2.596,2.981 5.776,5.304 9.54,6.967 3.763,1.663 8.052,2.494 12.865,2.494 4.434,0 8.417,-0.816 11.947,-2.449 3.529,-1.634 6.534,-3.896 9.015,-6.787 2.479,-2.893 4.383,-6.316 5.711,-10.271 1.327,-3.956 1.991,-8.257 1.991,-12.901 0,-4.885 -0.65,-9.417 -1.947,-13.598 -1.299,-4.18 -3.21,-7.799 -5.734,-10.854 -2.523,-3.057 -5.63,-5.455 -9.32,-7.193 -3.692,-1.737 -7.943,-2.607 -12.756,-2.607" /></g><g
           transform="translate(244.6729,109.2979)"
           id="g28"><path
             id="path30"
             style="fill:#da3826;fill-opacity:1;fill-rule:nonzero;stroke:none"
             d="m 0,0 c -1.255,0.838 -2.874,1.258 -4.857,1.258 -5.252,0 -7.877,-3.521 -7.877,-10.563 v -7.371 H 2.702 v -5.035 h -15.436 v -40.994 h -5.602 v 40.994 h -7.833 v 5.035 h 7.833 v 7.731 c 0,2.307 0.284,4.397 0.854,6.27 0.568,1.873 1.407,3.476 2.515,4.81 1.109,1.333 2.501,2.36 4.18,3.079 1.677,0.719 3.61,1.079 5.798,1.079 2.1,0 3.763,-0.285 4.989,-0.854 z" /></g><g
           transform="translate(270.4336,109.2979)"
           id="g32"><path
             id="path34"
             style="fill:#da3826;fill-opacity:1;fill-rule:nonzero;stroke:none"
             d="m 0,0 c -1.255,0.838 -2.874,1.258 -4.857,1.258 -5.252,0 -7.877,-3.521 -7.877,-10.563 v -7.371 h 11.158 v -5.035 h -11.158 v -40.994 h -5.602 v 40.994 h -7.833 v 5.035 h 7.833 v 7.731 c 0,2.307 0.284,4.397 0.854,6.27 0.568,1.873 1.407,3.476 2.515,4.81 1.109,1.333 2.501,2.36 4.18,3.079 1.677,0.719 3.61,1.079 5.798,1.079 2.1,0 3.763,-0.285 4.989,-0.854 z" /></g><path
           id="path36"
           style="fill:#da3826;fill-opacity:1;fill-rule:nonzero;stroke:none"
           d="m 275.319,92.622 h 5.602 V 46.593 h -5.602 z m 2.757,11.641 c -1.08,0 -2.013,0.389 -2.801,1.169 -0.788,0.779 -1.181,1.768 -1.181,2.967 0,1.168 0.393,2.135 1.181,2.899 0.788,0.764 1.721,1.146 2.801,1.146 0.554,0 1.079,-0.097 1.575,-0.292 0.496,-0.195 0.926,-0.472 1.291,-0.832 0.365,-0.359 0.657,-0.786 0.875,-1.28 0.219,-0.495 0.329,-1.042 0.329,-1.641 0,-0.57 -0.103,-1.109 -0.306,-1.618 -0.205,-0.51 -0.497,-0.952 -0.876,-1.326 -0.379,-0.375 -0.81,-0.668 -1.291,-0.877 -0.481,-0.21 -1.014,-0.315 -1.597,-0.315" /><g
           transform="translate(324.5352,48.6602)"
           id="g38"><path
             id="path40"
             style="fill:#da3826;fill-opacity:1;fill-rule:nonzero;stroke:none"
             d="m 0,0 c -3.326,-2.067 -7.352,-3.131 -12.078,-3.191 -3.209,-0.03 -6.098,0.54 -8.664,1.708 -2.569,1.169 -4.756,2.794 -6.565,4.877 -1.809,2.083 -3.194,4.54 -4.157,7.372 -0.963,2.832 -1.444,5.911 -1.444,9.237 0,3.445 0.511,6.689 1.532,9.731 1.021,3.042 2.509,5.694 4.463,7.957 1.954,2.262 4.347,4.052 7.177,5.371 2.83,1.318 6.068,1.978 9.715,1.978 3.705,0 7.089,-0.735 10.152,-2.203 v -6.113 c -3.268,2.217 -6.798,3.327 -10.59,3.327 -2.655,0 -5.018,-0.517 -7.089,-1.551 -2.072,-1.034 -3.814,-2.443 -5.229,-4.226 -1.415,-1.783 -2.494,-3.865 -3.239,-6.248 -0.744,-2.381 -1.116,-4.907 -1.116,-7.574 0,-2.457 0.314,-4.809 0.942,-7.056 0.627,-2.249 1.589,-4.234 2.887,-5.957 1.298,-1.723 2.94,-3.094 4.923,-4.113 1.984,-1.018 4.317,-1.528 7.002,-1.528 4.201,0 7.993,1.288 11.378,3.866 z" /></g><g
           transform="translate(363.9482,73.6074)"
           id="g42"><path
             id="path44"
             style="fill:#da3826;fill-opacity:1;fill-rule:nonzero;stroke:none"
             d="m 0,0 c -0.087,4.794 -1.196,8.51 -3.325,11.148 -2.13,2.636 -5.092,3.956 -8.884,3.956 -1.896,0 -3.654,-0.346 -5.273,-1.035 -1.62,-0.689 -3.041,-1.685 -4.267,-2.988 C -22.974,9.777 -23.988,8.188 -24.79,6.315 -25.593,4.442 -26.154,2.338 -26.475,0 Z m -26.606,-5.034 c 0.029,-2.818 0.394,-5.349 1.094,-7.597 0.7,-2.247 1.706,-4.15 3.019,-5.708 1.313,-1.558 2.91,-2.75 4.792,-3.574 1.882,-0.824 4.004,-1.236 6.367,-1.236 5.047,0 9.817,1.813 14.31,5.439 v -5.664 c -4.288,-3.147 -9.482,-4.72 -15.579,-4.72 -3.005,0 -5.733,0.54 -8.183,1.618 -2.45,1.08 -4.537,2.645 -6.258,4.698 -1.722,2.052 -3.049,4.577 -3.982,7.574 -0.934,2.996 -1.401,6.412 -1.401,10.249 0,3.445 0.511,6.637 1.532,9.574 1.021,2.936 2.436,5.476 4.245,7.619 1.808,2.142 3.953,3.821 6.433,5.034 2.479,1.214 5.193,1.821 8.139,1.821 2.889,0 5.441,-0.517 7.658,-1.551 2.217,-1.034 4.077,-2.51 5.58,-4.428 C 2.662,12.196 3.808,9.859 4.595,7.102 5.383,4.345 5.776,1.259 5.776,-2.157 v -2.877 z" /></g></g></g></g></svg>